<svg xmlns="http://www.w3.org/2000/svg" viewBox="0 0 318.6 318.6" width="100%" height="100%">
  <path fill="#E2761B" stroke="#E2761B" stroke-linecap="round" stroke-linejoin="round" d="m274.1 35.5-99.5 73.9L194 65.4z"/>
  <path fill="#E4761B" stroke="#E4761B" stroke-linecap="round" stroke-linejoin="round" d="m44.4 35.5 98.7 74.6-18.4-44.7z"/>
  <path fill="#E4761B" stroke="#E4761B" stroke-linecap="round" stroke-linejoin="round" d="m238.3 206.8-28.5 43.1 58.6 16.2 16.8-59z"/>
  <path fill="#E4761B" stroke="#E4761B" stroke-linecap="round" stroke-linejoin="round" d="m34.9 207.1 16.7 59 58.6-16.2-28.5-43.1z"/>
  <path fill="#E4761B" stroke="#E4761B" stroke-linecap="round" stroke-linejoin="round" d="m87 125.8-19.8 29.9 70.3 3.1-2.4-74.8z"/>
  <path fill="#E4761B" stroke="#E4761B" stroke-linecap="round" stroke-linejoin="round" d="m231.5 125.8-48.4-42.3-2.1 75.3 70.3-3.1z"/>
  <path fill="#E4761B" stroke="#E4761B" stroke-linecap="round" stroke-linejoin="round" d="m87 125.8 49.3 54.4-4.8 28.7-49.9-1.9z"/>
  <path fill="#E4761B" stroke="#E4761B" stroke-linecap="round" stroke-linejoin="round" d="m183 125.8-44.5 81.2-4.8-28.7 49.3-54.4z"/>
  <path fill="#D7C1B3" stroke="#D7C1B3" stroke-linecap="round" stroke-linejoin="round" d="m133.7 207-44.6-1.9-8.5 35.9 57.9 14.9z"/>
  <path fill="#D7C1B3" stroke="#D7C1B3" stroke-linecap="round" stroke-linejoin="round" d="m184.9 207-4.8-48.9-46.4-.3-4.8 48.9 4.8 28.7h46.4z"/>
  <path fill="#D7C1B3" stroke="#D7C1B3" stroke-linecap="round" stroke-linejoin="round" d="m184.9 207 4.8 48.9 57.9-14.9-8.5-35.9z"/>
  <path fill="#233447" stroke="#233447" stroke-linecap="round" stroke-linejoin="round" d="m89.1 205.1 44.6 1.9-4.8-28.7z"/>
  <path fill="#233447" stroke="#233447" stroke-linecap="round" stroke-linejoin="round" d="m184.9 207 44.6-1.9-39.8-26.8z"/>
  <path fill="#CD6116" stroke="#CD6116" stroke-linecap="round" stroke-linejoin="round" d="m80.6 241 8.5-35.9-54.2 2 28.5 43.1z"/>
  <path fill="#CD6116" stroke="#CD6116" stroke-linecap="round" stroke-linejoin="round" d="m229.4 205.1 8.5 35.9 17.2 9.2 28.5-43.1z"/>
  <path fill="#CD6116" stroke="#CD6116" stroke-linecap="round" stroke-linejoin="round" d="m189.7 255.9-4.8-48.9 3.8 28.9z"/>
  <path fill="#CD6116" stroke="#CD6116" stroke-linecap="round" stroke-linejoin="round" d="m133.7 207-4.8 48.9 1-20z"/>
  <path fill="#E4751F" stroke="#E4751F" stroke-linecap="round" stroke-linejoin="round" d="m189.7 255.9-49.9 27.2 4.8-27.2h39.4z"/>
  <path fill="#E4751F" stroke="#E4751F" stroke-linecap="round" stroke-linejoin="round" d="m139.8 283.1-49.9-27.2 5.7-27.2h39.4z"/>
  <path fill="#F6851B" stroke="#F6851B" stroke-linecap="round" stroke-linejoin="round" d="m139.8 283.1 49.9-27.2-57.9 14.9z"/>
  <path fill="#F6851B" stroke="#F6851B" stroke-linecap="round" stroke-linejoin="round" d="m89.9 255.9 49.9 27.2 8-12.3z"/>
  <path fill="#C0AD9E" stroke="#C0AD9E" stroke-linecap="round" stroke-linejoin="round" d="m138.8 255.9h40.9l-4.8-48.9h-46.4z"/>
  <path fill="#161616" stroke="#161616" stroke-linecap="round" stroke-linejoin="round" d="m138.8 255.9h40.9l-20.5 12.3z"/>
  <path fill="#763D16" stroke="#763D16" stroke-linecap="round" stroke-linejoin="round" d="m133.7 207 5.1 48.9 20.5-12.3 5.1-36.6z"/>
  <path fill="#F6851B" stroke="#F6851B" stroke-linecap="round" stroke-linejoin="round" d="m274.1 35.5-22.6 70.8-20-40.9z"/>
  <path fill="#F6851B" stroke="#F6851B" stroke-linecap="round" stroke-linejoin="round" d="m67.1 65.4-22.7-29.9 42.6 29.8z"/>
  <path fill="#F6851B" stroke="#F6851B" stroke-linecap="round" stroke-linejoin="round" d="m137.5 158.8 2.3-74.5 44.5 41.5z"/>
  <path fill="#F6851B" stroke="#F6851B" stroke-linecap="round" stroke-linejoin="round" d="m137.5 158.8-46.8-33 44.5-41.5z"/>
  <path fill="#F6851B" stroke="#F6851B" stroke-linecap="round" stroke-linejoin="round" d="m174.6 35.5 19.4 29.9-19.4 18.9z"/>
  <path fill="#F6851B" stroke="#F6851B" stroke-linecap="round" stroke-linejoin="round" d="m124.6 65.4 19.4-29.9v48.8z"/>
  <path fill="#F6851B" stroke="#F6851B" stroke-linecap="round" stroke-linejoin="round" d="m174.6 35.5h-30.6l15.3 14.8z"/>
</svg>
